<svg width="100" height="37" viewBox="0 0 100 37" fill="none" xmlns="http://www.w3.org/2000/svg">
<rect x="0.5" y="0.5" width="99" height="36" stroke="#ABB2BF"/>
<path d="M23.024 18.424C23.024 17.544 22.936 16.8373 22.76 16.304C22.5893 15.7707 22.3573 15.3653 22.064 15.088C21.776 14.8107 21.4533 14.624 21.096 14.528C20.744 14.432 20.384 14.384 20.016 14.384H19V22.592H20.024C20.408 22.592 20.7787 22.5307 21.136 22.408C21.4933 22.2853 21.8133 22.072 22.096 21.768C22.384 21.464 22.6107 21.0427 22.776 20.504C22.9413 19.96 23.024 19.2667 23.024 18.424ZM24.976 18.424C24.976 19.336 24.8773 20.1147 24.68 20.76C24.488 21.4053 24.2213 21.9413 23.88 22.368C23.544 22.7893 23.1547 23.12 22.712 23.36C22.2747 23.5947 21.8107 23.76 21.32 23.856C20.8293 23.952 20.3387 24 19.848 24H17.144V12.96H19.664C20.336 12.96 20.9867 13.032 21.616 13.176C22.2507 13.32 22.8187 13.5867 23.32 13.976C23.8267 14.3653 24.2293 14.9173 24.528 15.632C24.8267 16.3467 24.976 17.2773 24.976 18.424ZM28.5058 20.352C28.5431 20.928 28.6658 21.4 28.8738 21.768C29.0818 22.1307 29.3538 22.3973 29.6898 22.568C30.0311 22.7387 30.4044 22.824 30.8098 22.824C31.2258 22.824 31.6098 22.76 31.9618 22.632C32.3138 22.504 32.6684 22.3227 33.0258 22.088L33.8018 23.16C33.4071 23.48 32.9458 23.736 32.4178 23.928C31.8898 24.12 31.3244 24.216 30.7218 24.216C29.8471 24.216 29.1058 24.0293 28.4978 23.656C27.8951 23.2827 27.4364 22.7627 27.1218 22.096C26.8071 21.4293 26.6497 20.6587 26.6497 19.784C26.6497 18.936 26.8044 18.1787 27.1138 17.512C27.4231 16.84 27.8658 16.3093 28.4418 15.92C29.0178 15.5253 29.7058 15.328 30.5058 15.328C31.2578 15.328 31.9031 15.4987 32.4418 15.84C32.9858 16.1813 33.4044 16.6667 33.6978 17.296C33.9964 17.92 34.1458 18.672 34.1458 19.552C34.1458 19.696 34.1404 19.84 34.1298 19.984C34.1244 20.1227 34.1164 20.2453 34.1058 20.352H28.5058ZM30.5218 16.656C29.9618 16.656 29.4978 16.856 29.1298 17.256C28.7671 17.656 28.5564 18.28 28.4978 19.128H32.4098C32.3938 18.3333 32.2231 17.7227 31.8978 17.296C31.5778 16.8693 31.1191 16.656 30.5218 16.656ZM42.4355 15.328C42.7555 15.328 43.0435 15.3973 43.2995 15.536C43.5555 15.6747 43.7555 15.9173 43.8995 16.264C44.0488 16.6107 44.1235 17.096 44.1235 17.72V24H42.5315V17.968C42.5315 17.5253 42.4995 17.208 42.4355 17.016C42.3768 16.824 42.2195 16.728 41.9635 16.728C41.7608 16.728 41.5555 16.792 41.3475 16.92C41.1395 17.0427 40.9288 17.256 40.7155 17.56V24H39.2675V17.968C39.2675 17.5253 39.2355 17.208 39.1715 17.016C39.1128 16.824 38.9555 16.728 38.6995 16.728C38.4915 16.728 38.2835 16.792 38.0755 16.92C37.8728 17.0427 37.6648 17.256 37.4515 17.56V24H35.8515V15.552H37.2035L37.3235 16.464C37.5635 16.128 37.8248 15.856 38.1075 15.648C38.3902 15.4347 38.7315 15.328 39.1315 15.328C39.4515 15.328 39.7422 15.408 40.0035 15.568C40.2648 15.728 40.4568 16.008 40.5795 16.408C40.8142 16.088 41.0808 15.8293 41.3795 15.632C41.6782 15.4293 42.0302 15.328 42.4355 15.328ZM49.5893 15.328C50.4159 15.328 51.1119 15.512 51.6773 15.88C52.2426 16.248 52.6693 16.7627 52.9573 17.424C53.2506 18.0853 53.3973 18.864 53.3973 19.76C53.3973 20.6507 53.2479 21.432 52.9493 22.104C52.6559 22.7707 52.2239 23.2907 51.6533 23.664C51.0879 24.032 50.3973 24.216 49.5813 24.216C48.7653 24.216 48.0719 24.0373 47.5013 23.68C46.9359 23.3173 46.5039 22.8027 46.2053 22.136C45.9119 21.4693 45.7653 20.6827 45.7653 19.776C45.7653 18.896 45.9119 18.1227 46.2053 17.456C46.5039 16.7893 46.9386 16.2693 47.5093 15.896C48.0799 15.5173 48.7733 15.328 49.5893 15.328ZM49.5893 16.72C48.9439 16.72 48.4586 16.968 48.1333 17.464C47.8079 17.9547 47.6453 18.7253 47.6453 19.776C47.6453 20.8213 47.8053 21.592 48.1253 22.088C48.4506 22.584 48.9359 22.832 49.5813 22.832C50.2266 22.832 50.7093 22.584 51.0293 22.088C51.3546 21.592 51.5173 20.816 51.5173 19.76C51.5173 18.72 51.3573 17.9547 51.0373 17.464C50.7173 16.968 50.2346 16.72 49.5893 16.72ZM69.9945 12.616L79.1145 18.208V19.752L69.9945 25.408H68.4905V12.616H69.9945ZM69.9945 23.592L77.5705 18.984L69.9945 14.44V23.592Z" fill="#ABB2BF"/>
</svg>
