<svg width="109" height="37" viewBox="0 0 109 37" fill="none" xmlns="http://www.w3.org/2000/svg">
<rect x="0.5" y="0.5" width="108" height="36" stroke="#C778DD"/>
<path d="M17.912 24V12.96H19.768V22.448H24.712L24.512 24H17.912ZM31.6338 15.552V22.688H33.9298V24H27.3138V22.688H29.8418V16.864H27.3938V15.552H31.6338ZM30.3858 11.416C30.7378 11.416 31.0204 11.5227 31.2338 11.736C31.4524 11.9493 31.5618 12.216 31.5618 12.536C31.5618 12.856 31.4524 13.1253 31.2338 13.344C31.0204 13.5627 30.7378 13.672 30.3858 13.672C30.0444 13.672 29.7644 13.5627 29.5458 13.344C29.3271 13.1253 29.2178 12.856 29.2178 12.536C29.2178 12.216 29.3271 11.9493 29.5458 11.736C29.7644 11.5227 30.0444 11.416 30.3858 11.416ZM44.0115 15.552L41.0355 24H38.9395L35.9635 15.552H37.8835L40.0275 22.512L42.1795 15.552H44.0115ZM47.6933 20.352C47.7306 20.928 47.8533 21.4 48.0613 21.768C48.2693 22.1307 48.5413 22.3973 48.8773 22.568C49.2186 22.7387 49.5919 22.824 49.9973 22.824C50.4133 22.824 50.7973 22.76 51.1493 22.632C51.5013 22.504 51.8559 22.3227 52.2133 22.088L52.9893 23.16C52.5946 23.48 52.1333 23.736 51.6053 23.928C51.0773 24.12 50.5119 24.216 49.9093 24.216C49.0346 24.216 48.2933 24.0293 47.6853 23.656C47.0826 23.2827 46.6239 22.7627 46.3093 22.096C45.9946 21.4293 45.8372 20.6587 45.8372 19.784C45.8372 18.936 45.9919 18.1787 46.3013 17.512C46.6106 16.84 47.0533 16.3093 47.6293 15.92C48.2053 15.5253 48.8933 15.328 49.6933 15.328C50.4453 15.328 51.0906 15.4987 51.6293 15.84C52.1733 16.1813 52.5919 16.6667 52.8853 17.296C53.1839 17.92 53.3333 18.672 53.3333 19.552C53.3333 19.696 53.3279 19.84 53.3173 19.984C53.3119 20.1227 53.3039 20.2453 53.2933 20.352H47.6933ZM49.7093 16.656C49.1493 16.656 48.6853 16.856 48.3173 17.256C47.9546 17.656 47.7439 18.28 47.6853 19.128H51.5973C51.5813 18.3333 51.4106 17.7227 51.0853 17.296C50.7653 16.8693 50.3066 16.656 49.7093 16.656ZM73.0442 14.384L73.8682 15.68L68.3962 18.984L73.8682 22.288L72.9882 23.576L66.8522 19.752V18.216L73.0442 14.384ZM83.6842 14.384L89.8683 18.208V19.752L83.7323 23.576L82.8522 22.312L88.3323 18.984L82.8522 15.704L83.6842 14.384ZM84.5163 17.696L85.6523 18.24C85.4709 18.6187 85.2576 18.976 85.0123 19.312C84.7723 19.648 84.4843 19.9227 84.1483 20.136C83.8176 20.3493 83.4149 20.456 82.9402 20.456C82.5616 20.456 82.2336 20.376 81.9562 20.216C81.6736 20.056 81.4202 19.8693 81.1962 19.656C80.9669 19.4427 80.7456 19.256 80.5322 19.096C80.3136 18.936 80.0789 18.856 79.8282 18.856C79.5829 18.856 79.3589 18.936 79.1562 19.096C78.9482 19.256 78.7376 19.4427 78.5242 19.656C78.3109 19.8693 78.0709 20.056 77.8042 20.216C77.5322 20.376 77.2069 20.456 76.8282 20.456C76.4496 20.456 76.1216 20.376 75.8442 20.216C75.5616 20.056 75.3082 19.8693 75.0842 19.656C74.8549 19.4427 74.6336 19.256 74.4202 19.096C74.2016 18.936 73.9669 18.856 73.7162 18.856C73.3856 18.856 73.1029 18.9813 72.8682 19.232C72.6282 19.4773 72.4042 19.792 72.1962 20.176L71.0602 19.64C71.2469 19.272 71.4602 18.92 71.7002 18.584C71.9349 18.2427 72.2202 17.9627 72.5562 17.744C72.8922 17.52 73.2976 17.408 73.7722 17.408C74.1722 17.408 74.5136 17.488 74.7962 17.648C75.0789 17.808 75.3322 17.9947 75.5562 18.208C75.7802 18.4213 75.9962 18.608 76.2042 18.768C76.4122 18.928 76.6389 19.008 76.8842 19.008C77.1242 19.008 77.3429 18.928 77.5402 18.768C77.7376 18.608 77.9429 18.4213 78.1562 18.208C78.3642 17.9947 78.6042 17.808 78.8762 17.648C79.1482 17.488 79.4842 17.408 79.8842 17.408C80.2842 17.408 80.6256 17.488 80.9082 17.648C81.1909 17.808 81.4442 17.9947 81.6682 18.208C81.8922 18.4213 82.1082 18.608 82.3162 18.768C82.5242 18.928 82.7509 19.008 82.9962 19.008C83.3163 19.008 83.5963 18.888 83.8363 18.648C84.0816 18.4027 84.3083 18.0853 84.5163 17.696Z" fill="white"/>
</svg>
