<svg width="784" height="173" viewBox="0 0 784 173" fill="none" xmlns="http://www.w3.org/2000/svg">
<rect x="0.5" y="14.5" width="783" height="94" fill="#282C33"/>
<rect x="0.5" y="14.5" width="783" height="94" stroke="#ABB2BF"/>
<path d="M40.592 53.104C41.712 53.104 42.656 53.252 43.424 53.548C44.2 53.836 44.92 54.252 45.584 54.796L44.132 56.524C43.636 56.108 43.104 55.8 42.536 55.6C41.968 55.4 41.364 55.3 40.724 55.3C39.9 55.3 39.14 55.508 38.444 55.924C37.748 56.34 37.188 57.016 36.764 57.952C36.348 58.888 36.14 60.136 36.14 61.696C36.14 63.224 36.34 64.456 36.74 65.392C37.14 66.328 37.688 67.008 38.384 67.432C39.08 67.856 39.86 68.068 40.724 68.068C41.612 68.068 42.348 67.924 42.932 67.636C43.516 67.34 44.032 67.008 44.48 66.64L45.824 68.356C45.272 68.892 44.572 69.356 43.724 69.748C42.876 70.132 41.844 70.324 40.628 70.324C39.228 70.324 37.968 69.996 36.848 69.34C35.736 68.676 34.856 67.704 34.208 66.424C33.568 65.144 33.248 63.568 33.248 61.696C33.248 59.84 33.58 58.276 34.244 57.004C34.908 55.724 35.796 54.756 36.908 54.1C38.02 53.436 39.248 53.104 40.592 53.104ZM48.6466 70V68.08H50.5066V59.236H48.6466V57.328H52.5586L53.0506 60.268C53.5226 59.204 54.1066 58.396 54.8026 57.844C55.5066 57.284 56.4106 57.004 57.5146 57.004C57.8906 57.004 58.2266 57.036 58.5226 57.1C58.8266 57.156 59.1266 57.232 59.4226 57.328L58.6186 59.632C58.3626 59.56 58.1226 59.508 57.8986 59.476C57.6746 59.436 57.4266 59.416 57.1546 59.416C56.2346 59.416 55.4386 59.76 54.7666 60.448C54.1026 61.136 53.5786 62.112 53.1946 63.376V68.08H55.7506V70H48.6466ZM57.0466 61.996V58.876L57.3826 57.328H59.4226L58.9666 61.996H57.0466ZM72.6013 66.892C72.6013 67.388 72.6773 67.752 72.8293 67.984C72.9813 68.208 73.2253 68.376 73.5613 68.488L72.9613 70.312C72.3373 70.24 71.8013 70.068 71.3533 69.796C70.9053 69.524 70.5653 69.112 70.3333 68.56C69.8693 69.144 69.2813 69.584 68.5693 69.88C67.8573 70.176 67.0973 70.324 66.2893 70.324C65.0093 70.324 63.9933 69.964 63.2413 69.244C62.4973 68.516 62.1253 67.564 62.1253 66.388C62.1253 65.052 62.6453 64.024 63.6853 63.304C64.7253 62.584 66.2133 62.224 68.1493 62.224H69.9613V61.396C69.9613 60.58 69.7133 59.992 69.2173 59.632C68.7293 59.272 68.0373 59.092 67.1413 59.092C66.7253 59.092 66.2213 59.148 65.6293 59.26C65.0373 59.364 64.4173 59.528 63.7693 59.752L63.1093 57.856C63.9013 57.56 64.6773 57.344 65.4373 57.208C66.1973 57.064 66.9013 56.992 67.5493 56.992C69.2453 56.992 70.5093 57.368 71.3413 58.12C72.1813 58.872 72.6013 59.912 72.6013 61.24V66.892ZM67.1053 68.344C67.6493 68.344 68.1813 68.2 68.7013 67.912C69.2213 67.624 69.6413 67.22 69.9613 66.7V63.904H68.4733C67.2093 63.904 66.3053 64.116 65.7613 64.54C65.2173 64.956 64.9453 65.532 64.9453 66.268C64.9453 66.94 65.1253 67.456 65.4853 67.816C65.8533 68.168 66.3933 68.344 67.1053 68.344ZM85.0119 51.94C85.7879 51.94 86.4799 52.008 87.0879 52.144C87.7039 52.272 88.2719 52.448 88.7919 52.672L87.9999 54.532C87.5759 54.356 87.1319 54.228 86.6679 54.148C86.2119 54.068 85.7479 54.028 85.2759 54.028C84.4439 54.028 83.8279 54.188 83.4279 54.508C83.0279 54.82 82.8279 55.316 82.8279 55.996V58.24H87.0639L86.7759 60.22H82.8279V70H80.1519V60.22H77.2719V58.24H80.1519V55.972C80.1519 55.172 80.3519 54.472 80.7519 53.872C81.1599 53.264 81.7279 52.792 82.4559 52.456C83.1839 52.112 84.0359 51.94 85.0119 51.94ZM102.283 69.328C101.819 69.624 101.263 69.864 100.615 70.048C99.9665 70.232 99.2905 70.324 98.5865 70.324C97.1145 70.324 95.9945 69.944 95.2265 69.184C94.4665 68.416 94.0865 67.408 94.0865 66.16V59.284H91.2665V57.328H94.0865V54.496L96.7745 54.172V57.328H101.047L100.747 59.284H96.7745V66.136C96.7745 66.816 96.9425 67.324 97.2785 67.66C97.6225 67.988 98.1825 68.152 98.9585 68.152C99.4225 68.152 99.8505 68.096 100.243 67.984C100.635 67.872 100.991 67.728 101.311 67.552L102.283 69.328ZM113.013 57.328V68.032H116.457V70H106.533V68.032H110.325V59.296H106.653V57.328H113.013ZM111.141 51.124C111.669 51.124 112.093 51.284 112.413 51.604C112.741 51.924 112.905 52.324 112.905 52.804C112.905 53.284 112.741 53.688 112.413 54.016C112.093 54.344 111.669 54.508 111.141 54.508C110.629 54.508 110.209 54.344 109.881 54.016C109.553 53.688 109.389 53.284 109.389 52.804C109.389 52.324 109.553 51.924 109.881 51.604C110.209 51.284 110.629 51.124 111.141 51.124ZM120.48 70V57.328H122.796L123 58.972C123.528 58.324 124.152 57.832 124.872 57.496C125.592 57.16 126.332 56.992 127.092 56.992C128.276 56.992 129.16 57.324 129.744 57.988C130.336 58.644 130.632 59.568 130.632 60.76V70H127.944V62.092C127.944 61.356 127.9 60.764 127.812 60.316C127.724 59.868 127.548 59.544 127.284 59.344C127.028 59.144 126.644 59.044 126.132 59.044C125.724 59.044 125.336 59.132 124.968 59.308C124.6 59.484 124.264 59.716 123.96 60.004C123.656 60.284 123.392 60.584 123.168 60.904V70H120.48ZM145.538 55.72L146.258 57.952C145.754 58.12 145.198 58.232 144.59 58.288C143.99 58.344 143.318 58.372 142.574 58.372C143.334 58.708 143.906 59.14 144.29 59.668C144.674 60.188 144.866 60.828 144.866 61.588C144.866 62.412 144.666 63.148 144.266 63.796C143.866 64.444 143.294 64.952 142.55 65.32C141.806 65.688 140.914 65.872 139.874 65.872C139.506 65.872 139.186 65.856 138.914 65.824C138.65 65.792 138.39 65.74 138.134 65.668C137.974 65.78 137.838 65.932 137.726 66.124C137.622 66.308 137.57 66.504 137.57 66.712C137.57 66.968 137.674 67.192 137.882 67.384C138.098 67.568 138.522 67.66 139.154 67.66H141.362C142.266 67.66 143.062 67.816 143.75 68.128C144.446 68.432 144.99 68.852 145.382 69.388C145.782 69.916 145.982 70.516 145.982 71.188C145.982 72.452 145.438 73.432 144.35 74.128C143.262 74.824 141.694 75.172 139.646 75.172C138.198 75.172 137.062 75.024 136.238 74.728C135.414 74.432 134.834 73.992 134.498 73.408C134.162 72.824 133.994 72.108 133.994 71.26H136.406C136.406 71.7 136.49 72.064 136.658 72.352C136.834 72.64 137.158 72.856 137.63 73C138.102 73.144 138.782 73.216 139.67 73.216C140.558 73.216 141.262 73.14 141.782 72.988C142.31 72.844 142.69 72.632 142.922 72.352C143.162 72.08 143.282 71.752 143.282 71.368C143.282 70.856 143.058 70.46 142.61 70.18C142.162 69.9 141.562 69.76 140.81 69.76H138.638C137.438 69.76 136.558 69.516 135.998 69.028C135.446 68.54 135.17 67.972 135.17 67.324C135.17 66.892 135.29 66.476 135.53 66.076C135.778 65.676 136.13 65.328 136.586 65.032C135.826 64.632 135.27 64.148 134.918 63.58C134.574 63.004 134.402 62.308 134.402 61.492C134.402 60.596 134.626 59.812 135.074 59.14C135.522 58.468 136.142 57.944 136.934 57.568C137.734 57.192 138.654 57.004 139.694 57.004C140.71 57.004 141.558 56.952 142.238 56.848C142.918 56.736 143.51 56.58 144.014 56.38C144.526 56.18 145.034 55.96 145.538 55.72ZM139.718 58.852C138.862 58.852 138.218 59.096 137.786 59.584C137.354 60.064 137.138 60.692 137.138 61.468C137.138 62.268 137.358 62.912 137.798 63.4C138.246 63.88 138.898 64.12 139.754 64.12C140.546 64.12 141.15 63.888 141.566 63.424C141.99 62.96 142.202 62.3 142.202 61.444C142.202 60.58 141.994 59.932 141.578 59.5C141.162 59.068 140.542 58.852 139.718 58.852ZM169.76 68.116C170.352 68.116 170.904 68.016 171.416 67.816C171.928 67.608 172.416 67.34 172.88 67.012L174.128 68.74C173.576 69.212 172.904 69.596 172.112 69.892C171.328 70.18 170.516 70.324 169.676 70.324C168.38 70.324 167.272 70.052 166.352 69.508C165.432 68.956 164.728 68.184 164.24 67.192C163.752 66.2 163.508 65.044 163.508 63.724C163.508 62.436 163.752 61.288 164.24 60.28C164.736 59.264 165.448 58.464 166.376 57.88C167.304 57.288 168.42 56.992 169.724 56.992C170.588 56.992 171.384 57.12 172.112 57.376C172.84 57.632 173.508 58.012 174.116 58.516L172.88 60.208C172.384 59.864 171.876 59.604 171.356 59.428C170.844 59.244 170.316 59.152 169.772 59.152C168.772 59.152 167.952 59.52 167.312 60.256C166.68 60.992 166.364 62.148 166.364 63.724C166.364 64.78 166.508 65.632 166.796 66.28C167.092 66.92 167.496 67.388 168.008 67.684C168.52 67.972 169.104 68.116 169.76 68.116ZM183.61 52.24V66.544C183.61 67.128 183.786 67.544 184.138 67.792C184.498 68.032 184.962 68.152 185.53 68.152C185.898 68.152 186.246 68.112 186.574 68.032C186.902 67.952 187.222 67.852 187.534 67.732L188.218 69.604C187.842 69.796 187.378 69.964 186.826 70.108C186.282 70.252 185.658 70.324 184.954 70.324C183.682 70.324 182.69 69.968 181.978 69.256C181.274 68.536 180.922 67.552 180.922 66.304V54.22H177.094V52.24H183.61ZM194.665 64.528C194.721 65.392 194.905 66.1 195.217 66.652C195.529 67.196 195.937 67.596 196.441 67.852C196.953 68.108 197.513 68.236 198.121 68.236C198.745 68.236 199.321 68.14 199.849 67.948C200.377 67.756 200.909 67.484 201.445 67.132L202.609 68.74C202.017 69.22 201.325 69.604 200.533 69.892C199.741 70.18 198.893 70.324 197.989 70.324C196.677 70.324 195.565 70.044 194.653 69.484C193.749 68.924 193.061 68.144 192.589 67.144C192.117 66.144 191.881 64.988 191.881 63.676C191.881 62.404 192.113 61.268 192.577 60.268C193.041 59.26 193.705 58.464 194.569 57.88C195.433 57.288 196.465 56.992 197.665 56.992C198.793 56.992 199.761 57.248 200.569 57.76C201.385 58.272 202.013 59 202.453 59.944C202.901 60.88 203.125 62.008 203.125 63.328C203.125 63.544 203.117 63.76 203.101 63.976C203.093 64.184 203.081 64.368 203.065 64.528H194.665ZM197.689 58.984C196.849 58.984 196.153 59.284 195.601 59.884C195.057 60.484 194.741 61.42 194.653 62.692H200.521C200.497 61.5 200.241 60.584 199.753 59.944C199.273 59.304 198.585 58.984 197.689 58.984ZM216.508 66.892C216.508 67.388 216.584 67.752 216.736 67.984C216.888 68.208 217.132 68.376 217.468 68.488L216.868 70.312C216.244 70.24 215.708 70.068 215.26 69.796C214.812 69.524 214.472 69.112 214.24 68.56C213.776 69.144 213.188 69.584 212.476 69.88C211.764 70.176 211.004 70.324 210.196 70.324C208.916 70.324 207.9 69.964 207.148 69.244C206.404 68.516 206.032 67.564 206.032 66.388C206.032 65.052 206.552 64.024 207.592 63.304C208.632 62.584 210.12 62.224 212.056 62.224H213.868V61.396C213.868 60.58 213.62 59.992 213.124 59.632C212.636 59.272 211.944 59.092 211.048 59.092C210.632 59.092 210.128 59.148 209.536 59.26C208.944 59.364 208.324 59.528 207.676 59.752L207.016 57.856C207.808 57.56 208.584 57.344 209.344 57.208C210.104 57.064 210.808 56.992 211.456 56.992C213.152 56.992 214.416 57.368 215.248 58.12C216.088 58.872 216.508 59.912 216.508 61.24V66.892ZM211.012 68.344C211.556 68.344 212.088 68.2 212.608 67.912C213.128 67.624 213.548 67.22 213.868 66.7V63.904H212.38C211.116 63.904 210.212 64.116 209.668 64.54C209.124 64.956 208.852 65.532 208.852 66.268C208.852 66.94 209.032 67.456 209.392 67.816C209.76 68.168 210.3 68.344 211.012 68.344ZM221.214 70V57.328H223.53L223.734 58.972C224.262 58.324 224.886 57.832 225.606 57.496C226.326 57.16 227.066 56.992 227.826 56.992C229.01 56.992 229.894 57.324 230.478 57.988C231.07 58.644 231.366 59.568 231.366 60.76V70H228.678V62.092C228.678 61.356 228.634 60.764 228.546 60.316C228.458 59.868 228.282 59.544 228.018 59.344C227.762 59.144 227.378 59.044 226.866 59.044C226.458 59.044 226.07 59.132 225.702 59.308C225.334 59.484 224.998 59.716 224.694 60.004C224.39 60.284 224.126 60.584 223.902 60.904V70H221.214ZM256.103 68.116C256.695 68.116 257.247 68.016 257.759 67.816C258.271 67.608 258.759 67.34 259.223 67.012L260.471 68.74C259.919 69.212 259.247 69.596 258.455 69.892C257.671 70.18 256.859 70.324 256.019 70.324C254.723 70.324 253.615 70.052 252.695 69.508C251.775 68.956 251.071 68.184 250.583 67.192C250.095 66.2 249.851 65.044 249.851 63.724C249.851 62.436 250.095 61.288 250.583 60.28C251.079 59.264 251.791 58.464 252.719 57.88C253.647 57.288 254.763 56.992 256.067 56.992C256.931 56.992 257.727 57.12 258.455 57.376C259.183 57.632 259.851 58.012 260.459 58.516L259.223 60.208C258.727 59.864 258.219 59.604 257.699 59.428C257.187 59.244 256.659 59.152 256.115 59.152C255.115 59.152 254.295 59.52 253.655 60.256C253.023 60.992 252.707 62.148 252.707 63.724C252.707 64.78 252.851 65.632 253.139 66.28C253.435 66.92 253.839 67.388 254.351 67.684C254.863 67.972 255.447 68.116 256.103 68.116ZM269.462 56.992C270.702 56.992 271.746 57.268 272.594 57.82C273.442 58.372 274.082 59.144 274.514 60.136C274.954 61.128 275.174 62.296 275.174 63.64C275.174 64.976 274.95 66.148 274.502 67.156C274.062 68.156 273.414 68.936 272.558 69.496C271.71 70.048 270.674 70.324 269.45 70.324C268.226 70.324 267.186 70.056 266.33 69.52C265.482 68.976 264.834 68.204 264.386 67.204C263.946 66.204 263.726 65.024 263.726 63.664C263.726 62.344 263.946 61.184 264.386 60.184C264.834 59.184 265.486 58.404 266.342 57.844C267.198 57.276 268.238 56.992 269.462 56.992ZM269.462 59.08C268.494 59.08 267.766 59.452 267.278 60.196C266.79 60.932 266.546 62.088 266.546 63.664C266.546 65.232 266.786 66.388 267.266 67.132C267.754 67.876 268.482 68.248 269.45 68.248C270.418 68.248 271.142 67.876 271.622 67.132C272.11 66.388 272.354 65.224 272.354 63.64C272.354 62.08 272.114 60.932 271.634 60.196C271.154 59.452 270.43 59.08 269.462 59.08ZM286.217 51.94L288.905 52.24V70H286.541L286.349 68.44C285.917 69.04 285.401 69.504 284.801 69.832C284.201 70.16 283.529 70.324 282.785 70.324C281.697 70.324 280.801 70.048 280.097 69.496C279.393 68.936 278.869 68.156 278.525 67.156C278.189 66.148 278.021 64.984 278.021 63.664C278.021 62.376 278.221 61.232 278.621 60.232C279.021 59.224 279.593 58.432 280.337 57.856C281.081 57.28 281.977 56.992 283.025 56.992C283.689 56.992 284.285 57.112 284.813 57.352C285.341 57.584 285.809 57.924 286.217 58.372V51.94ZM283.733 59.056C282.829 59.056 282.125 59.432 281.621 60.184C281.117 60.928 280.865 62.088 280.865 63.664C280.865 64.744 280.969 65.624 281.177 66.304C281.385 66.976 281.685 67.472 282.077 67.792C282.469 68.104 282.941 68.26 283.493 68.26C284.101 68.26 284.629 68.084 285.077 67.732C285.525 67.38 285.905 66.956 286.217 66.46V60.46C285.905 60.012 285.541 59.668 285.125 59.428C284.709 59.18 284.245 59.056 283.733 59.056ZM295.399 64.528C295.455 65.392 295.639 66.1 295.951 66.652C296.263 67.196 296.671 67.596 297.175 67.852C297.687 68.108 298.247 68.236 298.855 68.236C299.479 68.236 300.055 68.14 300.583 67.948C301.111 67.756 301.643 67.484 302.179 67.132L303.343 68.74C302.751 69.22 302.059 69.604 301.267 69.892C300.475 70.18 299.627 70.324 298.723 70.324C297.411 70.324 296.299 70.044 295.387 69.484C294.483 68.924 293.795 68.144 293.323 67.144C292.851 66.144 292.615 64.988 292.615 63.676C292.615 62.404 292.847 61.268 293.311 60.268C293.775 59.26 294.439 58.464 295.303 57.88C296.167 57.288 297.199 56.992 298.399 56.992C299.527 56.992 300.495 57.248 301.303 57.76C302.119 58.272 302.747 59 303.187 59.944C303.635 60.88 303.859 62.008 303.859 63.328C303.859 63.544 303.851 63.76 303.835 63.976C303.827 64.184 303.815 64.368 303.799 64.528H295.399ZM298.423 58.984C297.583 58.984 296.887 59.284 296.335 59.884C295.791 60.484 295.475 61.42 295.387 62.692H301.255C301.231 61.5 300.975 60.584 300.487 59.944C300.007 59.304 299.319 58.984 298.423 58.984ZM331.633 66.892C331.633 67.388 331.709 67.752 331.861 67.984C332.013 68.208 332.257 68.376 332.593 68.488L331.993 70.312C331.369 70.24 330.833 70.068 330.385 69.796C329.937 69.524 329.597 69.112 329.365 68.56C328.901 69.144 328.313 69.584 327.601 69.88C326.889 70.176 326.129 70.324 325.321 70.324C324.041 70.324 323.025 69.964 322.273 69.244C321.529 68.516 321.157 67.564 321.157 66.388C321.157 65.052 321.677 64.024 322.717 63.304C323.757 62.584 325.245 62.224 327.181 62.224H328.993V61.396C328.993 60.58 328.745 59.992 328.249 59.632C327.761 59.272 327.069 59.092 326.173 59.092C325.757 59.092 325.253 59.148 324.661 59.26C324.069 59.364 323.449 59.528 322.801 59.752L322.141 57.856C322.933 57.56 323.709 57.344 324.469 57.208C325.229 57.064 325.933 56.992 326.581 56.992C328.277 56.992 329.541 57.368 330.373 58.12C331.213 58.872 331.633 59.912 331.633 61.24V66.892ZM326.137 68.344C326.681 68.344 327.213 68.2 327.733 67.912C328.253 67.624 328.673 67.22 328.993 66.7V63.904H327.505C326.241 63.904 325.337 64.116 324.793 64.54C324.249 64.956 323.977 65.532 323.977 66.268C323.977 66.94 324.157 67.456 324.517 67.816C324.885 68.168 325.425 68.344 326.137 68.344ZM336.339 70V57.328H338.655L338.859 58.972C339.387 58.324 340.011 57.832 340.731 57.496C341.451 57.16 342.191 56.992 342.951 56.992C344.135 56.992 345.019 57.324 345.603 57.988C346.195 58.644 346.491 59.568 346.491 60.76V70H343.803V62.092C343.803 61.356 343.759 60.764 343.671 60.316C343.583 59.868 343.407 59.544 343.143 59.344C342.887 59.144 342.503 59.044 341.991 59.044C341.583 59.044 341.195 59.132 340.827 59.308C340.459 59.484 340.123 59.716 339.819 60.004C339.515 60.284 339.251 60.584 339.027 60.904V70H336.339ZM358.17 51.94L360.858 52.24V70H358.494L358.302 68.44C357.87 69.04 357.354 69.504 356.754 69.832C356.154 70.16 355.482 70.324 354.738 70.324C353.65 70.324 352.754 70.048 352.05 69.496C351.346 68.936 350.822 68.156 350.478 67.156C350.142 66.148 349.974 64.984 349.974 63.664C349.974 62.376 350.174 61.232 350.574 60.232C350.974 59.224 351.546 58.432 352.29 57.856C353.034 57.28 353.93 56.992 354.978 56.992C355.642 56.992 356.238 57.112 356.766 57.352C357.294 57.584 357.762 57.924 358.17 58.372V51.94ZM355.686 59.056C354.782 59.056 354.078 59.432 353.574 60.184C353.07 60.928 352.818 62.088 352.818 63.664C352.818 64.744 352.922 65.624 353.13 66.304C353.338 66.976 353.638 67.472 354.03 67.792C354.422 68.104 354.894 68.26 355.446 68.26C356.054 68.26 356.582 68.084 357.03 67.732C357.478 67.38 357.858 66.956 358.17 66.46V60.46C357.858 60.012 357.494 59.668 357.078 59.428C356.662 59.18 356.198 59.056 355.686 59.056ZM386.435 57.328V68.032H389.879V70H379.955V68.032H383.747V59.296H380.075V57.328H386.435ZM384.563 51.124C385.091 51.124 385.515 51.284 385.835 51.604C386.163 51.924 386.327 52.324 386.327 52.804C386.327 53.284 386.163 53.688 385.835 54.016C385.515 54.344 385.091 54.508 384.563 54.508C384.051 54.508 383.631 54.344 383.303 54.016C382.975 53.688 382.811 53.284 382.811 52.804C382.811 52.324 382.975 51.924 383.303 51.604C383.631 51.284 384.051 51.124 384.563 51.124ZM402.638 56.992C403.118 56.992 403.55 57.096 403.934 57.304C404.318 57.512 404.618 57.876 404.834 58.396C405.058 58.916 405.17 59.644 405.17 60.58V70H402.782V60.952C402.782 60.288 402.734 59.812 402.638 59.524C402.55 59.236 402.314 59.092 401.93 59.092C401.626 59.092 401.318 59.188 401.006 59.38C400.694 59.564 400.378 59.884 400.058 60.34V70H397.886V60.952C397.886 60.288 397.838 59.812 397.742 59.524C397.654 59.236 397.418 59.092 397.034 59.092C396.722 59.092 396.41 59.188 396.098 59.38C395.794 59.564 395.482 59.884 395.162 60.34V70H392.762V57.328H394.79L394.97 58.696C395.33 58.192 395.722 57.784 396.146 57.472C396.57 57.152 397.082 56.992 397.682 56.992C398.162 56.992 398.598 57.112 398.99 57.352C399.382 57.592 399.67 58.012 399.854 58.612C400.206 58.132 400.606 57.744 401.054 57.448C401.502 57.144 402.03 56.992 402.638 56.992ZM414.472 56.992C415.592 56.992 416.488 57.268 417.16 57.82C417.832 58.364 418.32 59.136 418.624 60.136C418.928 61.128 419.08 62.296 419.08 63.64C419.08 64.928 418.896 66.076 418.528 67.084C418.16 68.092 417.612 68.884 416.884 69.46C416.164 70.036 415.268 70.324 414.196 70.324C412.868 70.324 411.796 69.856 410.98 68.92V74.872L408.292 75.172V57.328H410.632L410.8 58.96C411.28 58.304 411.836 57.812 412.468 57.484C413.108 57.156 413.776 56.992 414.472 56.992ZM413.728 59.068C413.128 59.068 412.6 59.248 412.144 59.608C411.688 59.968 411.3 60.392 410.98 60.88V66.808C411.284 67.264 411.644 67.616 412.06 67.864C412.484 68.104 412.96 68.224 413.488 68.224C414.392 68.224 415.08 67.86 415.552 67.132C416.024 66.404 416.26 65.244 416.26 63.652C416.26 62.572 416.164 61.696 415.972 61.024C415.788 60.344 415.508 59.848 415.132 59.536C414.764 59.224 414.296 59.068 413.728 59.068ZM432.367 66.892C432.367 67.388 432.443 67.752 432.595 67.984C432.747 68.208 432.991 68.376 433.327 68.488L432.727 70.312C432.103 70.24 431.567 70.068 431.119 69.796C430.671 69.524 430.331 69.112 430.099 68.56C429.635 69.144 429.047 69.584 428.335 69.88C427.623 70.176 426.863 70.324 426.055 70.324C424.775 70.324 423.759 69.964 423.007 69.244C422.263 68.516 421.891 67.564 421.891 66.388C421.891 65.052 422.411 64.024 423.451 63.304C424.491 62.584 425.979 62.224 427.915 62.224H429.727V61.396C429.727 60.58 429.479 59.992 428.983 59.632C428.495 59.272 427.803 59.092 426.907 59.092C426.491 59.092 425.987 59.148 425.395 59.26C424.803 59.364 424.183 59.528 423.535 59.752L422.875 57.856C423.667 57.56 424.443 57.344 425.203 57.208C425.963 57.064 426.667 56.992 427.315 56.992C429.011 56.992 430.275 57.368 431.107 58.12C431.947 58.872 432.367 59.912 432.367 61.24V66.892ZM426.871 68.344C427.415 68.344 427.947 68.2 428.467 67.912C428.987 67.624 429.407 67.22 429.727 66.7V63.904H428.239C426.975 63.904 426.071 64.116 425.527 64.54C424.983 64.956 424.711 65.532 424.711 66.268C424.711 66.94 424.891 67.456 425.251 67.816C425.619 68.168 426.159 68.344 426.871 68.344ZM443.182 68.116C443.774 68.116 444.326 68.016 444.838 67.816C445.35 67.608 445.838 67.34 446.302 67.012L447.549 68.74C446.998 69.212 446.326 69.596 445.534 69.892C444.75 70.18 443.938 70.324 443.098 70.324C441.802 70.324 440.694 70.052 439.774 69.508C438.854 68.956 438.15 68.184 437.662 67.192C437.174 66.2 436.93 65.044 436.93 63.724C436.93 62.436 437.174 61.288 437.662 60.28C438.158 59.264 438.87 58.464 439.798 57.88C440.726 57.288 441.842 56.992 443.146 56.992C444.01 56.992 444.806 57.12 445.534 57.376C446.262 57.632 446.93 58.012 447.538 58.516L446.302 60.208C445.806 59.864 445.298 59.604 444.778 59.428C444.266 59.244 443.738 59.152 443.194 59.152C442.194 59.152 441.374 59.52 440.734 60.256C440.102 60.992 439.786 62.148 439.786 63.724C439.786 64.78 439.93 65.632 440.218 66.28C440.514 66.92 440.918 67.388 441.43 67.684C441.942 67.972 442.526 68.116 443.182 68.116ZM462.048 69.328C461.584 69.624 461.028 69.864 460.38 70.048C459.732 70.232 459.056 70.324 458.352 70.324C456.88 70.324 455.76 69.944 454.992 69.184C454.232 68.416 453.852 67.408 453.852 66.16V59.284H451.032V57.328H453.852V54.496L456.54 54.172V57.328H460.812L460.512 59.284H456.54V66.136C456.54 66.816 456.708 67.324 457.044 67.66C457.388 67.988 457.948 68.152 458.724 68.152C459.188 68.152 459.616 68.096 460.008 67.984C460.4 67.872 460.756 67.728 461.076 67.552L462.048 69.328ZM473.559 51.94C474.335 51.94 475.027 52.008 475.635 52.144C476.251 52.272 476.819 52.448 477.339 52.672L476.547 54.532C476.123 54.356 475.679 54.228 475.215 54.148C474.759 54.068 474.295 54.028 473.823 54.028C472.991 54.028 472.375 54.188 471.975 54.508C471.575 54.82 471.375 55.316 471.375 55.996V58.24H475.611L475.323 60.22H471.375V70H468.699V60.22H465.819V58.24H468.699V55.972C468.699 55.172 468.899 54.472 469.299 53.872C469.707 53.264 470.275 52.792 471.003 52.456C471.731 52.112 472.583 51.94 473.559 51.94ZM482.933 57.328V66.184C482.933 66.936 483.081 67.472 483.377 67.792C483.681 68.112 484.137 68.272 484.745 68.272C485.321 68.272 485.877 68.1 486.413 67.756C486.949 67.412 487.373 66.992 487.685 66.496V57.328H490.373V70H488.057L487.889 68.38C487.417 69.012 486.821 69.496 486.101 69.832C485.381 70.16 484.645 70.324 483.893 70.324C482.669 70.324 481.753 69.988 481.145 69.316C480.545 68.636 480.245 67.704 480.245 66.52V57.328H482.933ZM500.204 52.24V66.544C500.204 67.128 500.38 67.544 500.732 67.792C501.092 68.032 501.556 68.152 502.124 68.152C502.492 68.152 502.84 68.112 503.168 68.032C503.496 67.952 503.816 67.852 504.128 67.732L504.812 69.604C504.436 69.796 503.972 69.964 503.42 70.108C502.876 70.252 502.252 70.324 501.548 70.324C500.276 70.324 499.284 69.968 498.572 69.256C497.868 68.536 497.516 67.552 497.516 66.304V54.22H493.688V52.24H500.204ZM526.105 57.328V66.184C526.105 66.936 526.253 67.472 526.549 67.792C526.853 68.112 527.309 68.272 527.917 68.272C528.493 68.272 529.049 68.1 529.585 67.756C530.121 67.412 530.545 66.992 530.857 66.496V57.328H533.545V70H531.229L531.061 68.38C530.589 69.012 529.993 69.496 529.273 69.832C528.553 70.16 527.817 70.324 527.065 70.324C525.841 70.324 524.925 69.988 524.317 69.316C523.717 68.636 523.417 67.704 523.417 66.52V57.328H526.105ZM542.416 68.26C543.256 68.26 543.924 68.112 544.42 67.816C544.916 67.512 545.164 67.096 545.164 66.568C545.164 66.224 545.092 65.932 544.948 65.692C544.804 65.444 544.516 65.22 544.084 65.02C543.652 64.812 542.996 64.596 542.116 64.372C541.284 64.156 540.552 63.9 539.92 63.604C539.296 63.308 538.812 62.924 538.468 62.452C538.124 61.98 537.952 61.372 537.952 60.628C537.952 59.9 538.156 59.264 538.564 58.72C538.972 58.176 539.556 57.752 540.316 57.448C541.084 57.144 541.984 56.992 543.016 56.992C544.08 56.992 545.008 57.132 545.8 57.412C546.592 57.692 547.268 58.04 547.828 58.456L546.7 60.148C546.204 59.82 545.66 59.552 545.068 59.344C544.484 59.136 543.824 59.032 543.088 59.032C542.232 59.032 541.616 59.16 541.24 59.416C540.872 59.672 540.688 60.012 540.688 60.436C540.688 60.748 540.78 61.012 540.964 61.228C541.156 61.436 541.484 61.632 541.948 61.816C542.412 61.992 543.068 62.2 543.916 62.44C544.74 62.664 545.456 62.928 546.064 63.232C546.68 63.536 547.156 63.94 547.492 64.444C547.836 64.94 548.008 65.588 548.008 66.388C548.008 67.3 547.744 68.048 547.216 68.632C546.696 69.208 546.008 69.636 545.152 69.916C544.304 70.188 543.392 70.324 542.416 70.324C541.24 70.324 540.224 70.156 539.368 69.82C538.512 69.476 537.792 69.048 537.208 68.536L538.636 66.904C539.132 67.304 539.7 67.632 540.34 67.888C540.98 68.136 541.672 68.26 542.416 68.26ZM554.431 64.528C554.487 65.392 554.671 66.1 554.983 66.652C555.295 67.196 555.703 67.596 556.207 67.852C556.719 68.108 557.279 68.236 557.887 68.236C558.511 68.236 559.087 68.14 559.615 67.948C560.143 67.756 560.675 67.484 561.211 67.132L562.375 68.74C561.783 69.22 561.091 69.604 560.299 69.892C559.507 70.18 558.659 70.324 557.755 70.324C556.443 70.324 555.331 70.044 554.419 69.484C553.515 68.924 552.827 68.144 552.355 67.144C551.883 66.144 551.646 64.988 551.646 63.676C551.646 62.404 551.879 61.268 552.343 60.268C552.807 59.26 553.471 58.464 554.335 57.88C555.199 57.288 556.231 56.992 557.431 56.992C558.559 56.992 559.527 57.248 560.335 57.76C561.151 58.272 561.779 59 562.219 59.944C562.667 60.88 562.891 62.008 562.891 63.328C562.891 63.544 562.883 63.76 562.867 63.976C562.859 64.184 562.847 64.368 562.831 64.528H554.431ZM557.455 58.984C556.615 58.984 555.919 59.284 555.367 59.884C554.823 60.484 554.507 61.42 554.419 62.692H560.287C560.263 61.5 560.007 60.584 559.519 59.944C559.039 59.304 558.351 58.984 557.455 58.984ZM566.709 70V68.08H568.569V59.236H566.709V57.328H570.621L571.113 60.268C571.585 59.204 572.169 58.396 572.865 57.844C573.569 57.284 574.473 57.004 575.577 57.004C575.953 57.004 576.289 57.036 576.585 57.1C576.889 57.156 577.189 57.232 577.485 57.328L576.681 59.632C576.425 59.56 576.185 59.508 575.961 59.476C575.737 59.436 575.489 59.416 575.217 59.416C574.297 59.416 573.501 59.76 572.829 60.448C572.165 61.136 571.641 62.112 571.257 63.376V68.08H573.813V70H566.709ZM575.109 61.996V58.876L575.445 57.328H577.485L577.029 61.996H575.109ZM597.602 64.528C597.658 65.392 597.842 66.1 598.154 66.652C598.466 67.196 598.874 67.596 599.378 67.852C599.89 68.108 600.45 68.236 601.058 68.236C601.682 68.236 602.258 68.14 602.786 67.948C603.314 67.756 603.846 67.484 604.382 67.132L605.546 68.74C604.954 69.22 604.262 69.604 603.47 69.892C602.678 70.18 601.83 70.324 600.926 70.324C599.614 70.324 598.502 70.044 597.59 69.484C596.686 68.924 595.998 68.144 595.526 67.144C595.054 66.144 594.818 64.988 594.818 63.676C594.818 62.404 595.05 61.268 595.514 60.268C595.978 59.26 596.642 58.464 597.506 57.88C598.37 57.288 599.402 56.992 600.602 56.992C601.73 56.992 602.698 57.248 603.506 57.76C604.322 58.272 604.95 59 605.39 59.944C605.838 60.88 606.062 62.008 606.062 63.328C606.062 63.544 606.054 63.76 606.038 63.976C606.03 64.184 606.018 64.368 606.002 64.528H597.602ZM600.626 58.984C599.786 58.984 599.09 59.284 598.538 59.884C597.994 60.484 597.678 61.42 597.59 62.692H603.458C603.434 61.5 603.178 60.584 602.69 59.944C602.21 59.304 601.522 58.984 600.626 58.984ZM611.633 70H608.657L613.205 63.316L609.161 57.328H612.257L614.849 61.792L617.441 57.328H620.393L616.433 63.208L620.993 70H617.837L614.729 64.828L611.633 70ZM630.332 56.992C631.452 56.992 632.348 57.268 633.02 57.82C633.692 58.364 634.18 59.136 634.484 60.136C634.788 61.128 634.94 62.296 634.94 63.64C634.94 64.928 634.756 66.076 634.388 67.084C634.02 68.092 633.472 68.884 632.744 69.46C632.024 70.036 631.128 70.324 630.056 70.324C628.728 70.324 627.656 69.856 626.84 68.92V74.872L624.152 75.172V57.328H626.492L626.66 58.96C627.14 58.304 627.696 57.812 628.328 57.484C628.968 57.156 629.636 56.992 630.332 56.992ZM629.588 59.068C628.988 59.068 628.46 59.248 628.004 59.608C627.548 59.968 627.16 60.392 626.84 60.88V66.808C627.144 67.264 627.504 67.616 627.92 67.864C628.344 68.104 628.82 68.224 629.348 68.224C630.252 68.224 630.94 67.86 631.412 67.132C631.884 66.404 632.12 65.244 632.12 63.652C632.12 62.572 632.024 61.696 631.832 61.024C631.648 60.344 631.368 59.848 630.992 59.536C630.624 59.224 630.156 59.068 629.588 59.068ZM640.774 64.528C640.83 65.392 641.014 66.1 641.326 66.652C641.638 67.196 642.046 67.596 642.55 67.852C643.062 68.108 643.622 68.236 644.23 68.236C644.854 68.236 645.43 68.14 645.958 67.948C646.486 67.756 647.018 67.484 647.554 67.132L648.718 68.74C648.126 69.22 647.434 69.604 646.642 69.892C645.85 70.18 645.002 70.324 644.098 70.324C642.786 70.324 641.674 70.044 640.762 69.484C639.858 68.924 639.17 68.144 638.698 67.144C638.226 66.144 637.99 64.988 637.99 63.676C637.99 62.404 638.222 61.268 638.686 60.268C639.15 59.26 639.814 58.464 640.678 57.88C641.542 57.288 642.574 56.992 643.774 56.992C644.902 56.992 645.87 57.248 646.678 57.76C647.494 58.272 648.122 59 648.562 59.944C649.01 60.88 649.234 62.008 649.234 63.328C649.234 63.544 649.226 63.76 649.21 63.976C649.202 64.184 649.19 64.368 649.174 64.528H640.774ZM643.798 58.984C642.958 58.984 642.262 59.284 641.71 59.884C641.166 60.484 640.85 61.42 640.762 62.692H646.63C646.606 61.5 646.35 60.584 645.862 59.944C645.382 59.304 644.694 58.984 643.798 58.984ZM653.053 70V68.08H654.913V59.236H653.053V57.328H656.965L657.457 60.268C657.929 59.204 658.513 58.396 659.209 57.844C659.913 57.284 660.817 57.004 661.921 57.004C662.297 57.004 662.633 57.036 662.929 57.1C663.233 57.156 663.533 57.232 663.829 57.328L663.025 59.632C662.769 59.56 662.529 59.508 662.305 59.476C662.081 59.436 661.833 59.416 661.561 59.416C660.641 59.416 659.845 59.76 659.173 60.448C658.509 61.136 657.985 62.112 657.601 63.376V68.08H660.157V70H653.053ZM661.453 61.996V58.876L661.789 57.328H663.829L663.373 61.996H661.453ZM674.248 57.328V68.032H677.692V70H667.768V68.032H671.56V59.296H667.888V57.328H674.248ZM672.376 51.124C672.904 51.124 673.328 51.284 673.648 51.604C673.976 51.924 674.14 52.324 674.14 52.804C674.14 53.284 673.976 53.688 673.648 54.016C673.328 54.344 672.904 54.508 672.376 54.508C671.864 54.508 671.444 54.344 671.116 54.016C670.788 53.688 670.624 53.284 670.624 52.804C670.624 52.324 670.788 51.924 671.116 51.604C671.444 51.284 671.864 51.124 672.376 51.124ZM683.946 64.528C684.002 65.392 684.186 66.1 684.498 66.652C684.81 67.196 685.218 67.596 685.722 67.852C686.234 68.108 686.794 68.236 687.402 68.236C688.026 68.236 688.602 68.14 689.13 67.948C689.658 67.756 690.19 67.484 690.726 67.132L691.89 68.74C691.298 69.22 690.606 69.604 689.814 69.892C689.022 70.18 688.174 70.324 687.27 70.324C685.958 70.324 684.846 70.044 683.934 69.484C683.03 68.924 682.342 68.144 681.87 67.144C681.398 66.144 681.162 64.988 681.162 63.676C681.162 62.404 681.394 61.268 681.858 60.268C682.322 59.26 682.986 58.464 683.85 57.88C684.714 57.288 685.746 56.992 686.946 56.992C688.074 56.992 689.042 57.248 689.85 57.76C690.666 58.272 691.294 59 691.734 59.944C692.182 60.88 692.406 62.008 692.406 63.328C692.406 63.544 692.398 63.76 692.382 63.976C692.374 64.184 692.362 64.368 692.346 64.528H683.946ZM686.97 58.984C686.13 58.984 685.434 59.284 684.882 59.884C684.338 60.484 684.022 61.42 683.934 62.692H689.802C689.778 61.5 689.522 60.584 689.034 59.944C688.554 59.304 687.866 58.984 686.97 58.984ZM696.105 70V57.328H698.421L698.625 58.972C699.153 58.324 699.777 57.832 700.497 57.496C701.217 57.16 701.957 56.992 702.717 56.992C703.901 56.992 704.785 57.324 705.369 57.988C705.961 58.644 706.257 59.568 706.257 60.76V70H703.569V62.092C703.569 61.356 703.525 60.764 703.437 60.316C703.349 59.868 703.173 59.544 702.909 59.344C702.653 59.144 702.269 59.044 701.757 59.044C701.349 59.044 700.961 59.132 700.593 59.308C700.225 59.484 699.889 59.716 699.585 60.004C699.281 60.284 699.017 60.584 698.793 60.904V70H696.105ZM716.603 68.116C717.195 68.116 717.747 68.016 718.259 67.816C718.771 67.608 719.259 67.34 719.723 67.012L720.971 68.74C720.419 69.212 719.747 69.596 718.955 69.892C718.171 70.18 717.359 70.324 716.519 70.324C715.223 70.324 714.115 70.052 713.195 69.508C712.275 68.956 711.571 68.184 711.083 67.192C710.595 66.2 710.351 65.044 710.351 63.724C710.351 62.436 710.595 61.288 711.083 60.28C711.579 59.264 712.291 58.464 713.219 57.88C714.147 57.288 715.263 56.992 716.567 56.992C717.431 56.992 718.227 57.12 718.955 57.376C719.683 57.632 720.351 58.012 720.959 58.516L719.723 60.208C719.227 59.864 718.719 59.604 718.199 59.428C717.687 59.244 717.159 59.152 716.615 59.152C715.615 59.152 714.795 59.52 714.155 60.256C713.523 60.992 713.207 62.148 713.207 63.724C713.207 64.78 713.351 65.632 713.639 66.28C713.935 66.92 714.339 67.388 714.851 67.684C715.363 67.972 715.947 68.116 716.603 68.116ZM727.118 64.528C727.174 65.392 727.358 66.1 727.67 66.652C727.982 67.196 728.39 67.596 728.894 67.852C729.406 68.108 729.966 68.236 730.574 68.236C731.198 68.236 731.774 68.14 732.302 67.948C732.83 67.756 733.362 67.484 733.898 67.132L735.062 68.74C734.47 69.22 733.778 69.604 732.986 69.892C732.194 70.18 731.346 70.324 730.442 70.324C729.13 70.324 728.018 70.044 727.106 69.484C726.202 68.924 725.514 68.144 725.042 67.144C724.57 66.144 724.334 64.988 724.334 63.676C724.334 62.404 724.566 61.268 725.03 60.268C725.494 59.26 726.158 58.464 727.022 57.88C727.886 57.288 728.918 56.992 730.118 56.992C731.246 56.992 732.214 57.248 733.022 57.76C733.838 58.272 734.466 59 734.906 59.944C735.354 60.88 735.578 62.008 735.578 63.328C735.578 63.544 735.57 63.76 735.554 63.976C735.546 64.184 735.534 64.368 735.518 64.528H727.118ZM730.142 58.984C729.302 58.984 728.606 59.284 728.054 59.884C727.51 60.484 727.194 61.42 727.106 62.692H732.974C732.95 61.5 732.694 60.584 732.206 59.944C731.726 59.304 731.038 58.984 730.142 58.984ZM743.885 68.26C744.725 68.26 745.393 68.112 745.889 67.816C746.385 67.512 746.633 67.096 746.633 66.568C746.633 66.224 746.561 65.932 746.417 65.692C746.273 65.444 745.985 65.22 745.553 65.02C745.121 64.812 744.465 64.596 743.585 64.372C742.753 64.156 742.021 63.9 741.389 63.604C740.765 63.308 740.281 62.924 739.937 62.452C739.593 61.98 739.421 61.372 739.421 60.628C739.421 59.9 739.625 59.264 740.033 58.72C740.441 58.176 741.025 57.752 741.785 57.448C742.553 57.144 743.453 56.992 744.485 56.992C745.549 56.992 746.477 57.132 747.269 57.412C748.061 57.692 748.737 58.04 749.297 58.456L748.169 60.148C747.673 59.82 747.129 59.552 746.537 59.344C745.953 59.136 745.293 59.032 744.557 59.032C743.701 59.032 743.085 59.16 742.709 59.416C742.341 59.672 742.157 60.012 742.157 60.436C742.157 60.748 742.249 61.012 742.433 61.228C742.625 61.436 742.953 61.632 743.417 61.816C743.881 61.992 744.537 62.2 745.385 62.44C746.209 62.664 746.925 62.928 747.533 63.232C748.149 63.536 748.625 63.94 748.961 64.444C749.305 64.94 749.477 65.588 749.477 66.388C749.477 67.3 749.213 68.048 748.685 68.632C748.165 69.208 747.477 69.636 746.621 69.916C745.773 70.188 744.861 70.324 743.885 70.324C742.709 70.324 741.693 70.156 740.837 69.82C739.981 69.476 739.261 69.048 738.677 68.536L740.105 66.904C740.601 67.304 741.169 67.632 741.809 67.888C742.449 68.136 743.141 68.26 743.885 68.26Z" fill="white"/>
<rect width="41.472" height="28.704" transform="translate(11)" fill="#282C33"/>
<path d="M29.56 19.616C29.56 21.0453 29.0373 22.2507 27.992 23.232C26.968 24.2133 25.72 24.704 24.248 24.704C22.7333 24.704 21.4747 24.2133 20.472 23.232C19.4907 22.2507 19 21.0453 19 19.616C19 18.9333 19.096 18.208 19.288 17.44C19.48 16.672 19.864 15.68 20.44 14.464L25.4 4H30.2L27.544 15.584C28.1413 16.0107 28.6213 16.576 28.984 17.28C29.368 17.9627 29.56 18.7413 29.56 19.616ZM43.8 19.616C43.8 21.0453 43.2773 22.2507 42.232 23.232C41.1867 24.2133 39.9387 24.704 38.488 24.704C37.016 24.704 35.768 24.2133 34.744 23.232C33.7413 22.2507 33.24 21.0453 33.24 19.616C33.24 18.9333 33.336 18.208 33.528 17.44C33.72 16.672 34.1147 15.68 34.712 14.464L39.704 4H44.472L41.784 15.584C42.4027 16.0107 42.8933 16.576 43.256 17.28C43.6187 17.9627 43.8 18.7413 43.8 19.616Z" fill="#ABB2BF"/>
<rect x="606.5" y="108.5" width="177" height="64" stroke="#ABB2BF"/>
<path d="M625.388 142.364V140.612H635.012V142.364H625.388ZM664.657 144.428C664.657 145.372 664.421 146.212 663.949 146.948C663.477 147.676 662.793 148.248 661.897 148.664C661.001 149.072 659.909 149.276 658.621 149.276C657.413 149.276 656.317 149.092 655.333 148.724C654.357 148.356 653.521 147.836 652.825 147.164L654.061 145.772C654.637 146.308 655.297 146.736 656.041 147.056C656.785 147.368 657.657 147.524 658.657 147.524C659.329 147.524 659.957 147.416 660.541 147.2C661.125 146.976 661.597 146.64 661.957 146.192C662.317 145.736 662.497 145.16 662.497 144.464C662.497 143.928 662.393 143.472 662.185 143.096C661.977 142.72 661.609 142.388 661.081 142.1C660.553 141.804 659.817 141.516 658.873 141.236C657.785 140.916 656.841 140.556 656.041 140.156C655.249 139.748 654.633 139.248 654.193 138.656C653.761 138.064 653.545 137.332 653.545 136.46C653.545 135.636 653.773 134.904 654.229 134.264C654.685 133.624 655.313 133.124 656.113 132.764C656.921 132.396 657.849 132.212 658.897 132.212C660.041 132.212 661.033 132.376 661.873 132.704C662.721 133.024 663.489 133.488 664.177 134.096L662.953 135.452C662.361 134.924 661.725 134.544 661.045 134.312C660.365 134.072 659.673 133.952 658.969 133.952C658.369 133.952 657.817 134.044 657.313 134.228C656.817 134.404 656.417 134.672 656.113 135.032C655.817 135.384 655.669 135.836 655.669 136.388C655.669 136.86 655.797 137.268 656.053 137.612C656.309 137.956 656.741 138.272 657.349 138.56C657.957 138.84 658.785 139.136 659.833 139.448C660.689 139.696 661.481 140.008 662.209 140.384C662.945 140.752 663.537 141.256 663.985 141.896C664.433 142.528 664.657 143.372 664.657 144.428ZM676.912 136.1C677.32 136.1 677.708 136.188 678.076 136.364C678.452 136.54 678.76 136.88 679 137.384C679.24 137.888 679.36 138.624 679.36 139.592V149H677.488V139.916C677.488 139.124 677.44 138.552 677.344 138.2C677.248 137.848 676.972 137.672 676.516 137.672C676.14 137.672 675.764 137.792 675.388 138.032C675.02 138.264 674.66 138.648 674.308 139.184V149H672.424V139.916C672.424 139.124 672.376 138.552 672.28 138.2C672.184 137.848 671.908 137.672 671.452 137.672C671.06 137.672 670.68 137.792 670.312 138.032C669.952 138.264 669.596 138.648 669.244 139.184V149H667.384V136.364H668.968L669.088 137.828C669.432 137.34 669.816 136.932 670.24 136.604C670.672 136.268 671.204 136.1 671.836 136.1C672.316 136.1 672.768 136.216 673.192 136.448C673.616 136.672 673.928 137.112 674.128 137.768C674.472 137.272 674.86 136.872 675.292 136.568C675.724 136.256 676.264 136.1 676.912 136.1ZM689.371 136.364V147.404H692.935V149H683.455V147.404H687.355V137.96H683.575V136.364H689.371ZM687.763 130.448C688.211 130.448 688.567 130.584 688.831 130.856C689.103 131.128 689.239 131.46 689.239 131.852C689.239 132.26 689.103 132.604 688.831 132.884C688.567 133.156 688.211 133.292 687.763 133.292C687.339 133.292 686.991 133.156 686.719 132.884C686.447 132.604 686.311 132.26 686.311 131.852C686.311 131.46 686.447 131.128 686.719 130.856C686.991 130.584 687.339 130.448 687.763 130.448ZM707.397 148.364C706.965 148.652 706.441 148.876 705.825 149.036C705.209 149.196 704.605 149.276 704.013 149.276C702.653 149.276 701.605 148.92 700.869 148.208C700.133 147.496 699.765 146.58 699.765 145.46V137.924H696.861V136.364H699.765V133.496L701.781 133.256V136.364H706.149L705.909 137.924H701.781V145.436C701.781 146.14 701.965 146.676 702.333 147.044C702.709 147.412 703.329 147.596 704.193 147.596C704.665 147.596 705.101 147.54 705.501 147.428C705.901 147.316 706.273 147.172 706.617 146.996L707.397 148.364ZM713.772 131.084V138.092C714.268 137.428 714.876 136.932 715.596 136.604C716.324 136.268 717.06 136.1 717.804 136.1C719.036 136.1 719.936 136.428 720.504 137.084C721.072 137.74 721.356 138.652 721.356 139.82V149H719.34V139.868C719.34 139.108 719.164 138.556 718.812 138.212C718.46 137.86 717.908 137.684 717.156 137.684C716.676 137.684 716.22 137.792 715.788 138.008C715.356 138.224 714.968 138.492 714.624 138.812C714.28 139.132 713.996 139.46 713.772 139.796V149H711.756V131.3L713.772 131.084ZM742.721 149H740.645V132.476H742.721V149ZM742.841 140.18L749.345 132.476H751.745L745.289 140.048L752.201 149H749.609L742.841 140.18ZM757.592 147.152C757.592 146.76 757.684 146.408 757.868 146.096C758.052 145.776 758.3 145.524 758.612 145.34C758.932 145.148 759.292 145.052 759.692 145.052C760.1 145.052 760.464 145.148 760.784 145.34C761.104 145.524 761.356 145.776 761.54 146.096C761.724 146.408 761.816 146.76 761.816 147.152C761.816 147.544 761.724 147.904 761.54 148.232C761.356 148.552 761.104 148.808 760.784 149C760.464 149.184 760.1 149.276 759.692 149.276C759.292 149.276 758.932 149.184 758.612 149C758.3 148.808 758.052 148.552 757.868 148.232C757.684 147.904 757.592 147.544 757.592 147.152Z" fill="white"/>
<rect width="41.472" height="28.704" transform="translate(726 94)" fill="#282C33"/>
<path d="M744.56 113.616C744.56 115.045 744.037 116.251 742.992 117.232C741.968 118.213 740.72 118.704 739.248 118.704C737.733 118.704 736.475 118.213 735.472 117.232C734.491 116.251 734 115.045 734 113.616C734 112.933 734.096 112.208 734.288 111.44C734.48 110.672 734.864 109.68 735.44 108.464L740.4 98H745.2L742.544 109.584C743.141 110.011 743.621 110.576 743.984 111.28C744.368 111.963 744.56 112.741 744.56 113.616ZM758.8 113.616C758.8 115.045 758.277 116.251 757.232 117.232C756.187 118.213 754.939 118.704 753.488 118.704C752.016 118.704 750.768 118.213 749.744 117.232C748.741 116.251 748.24 115.045 748.24 113.616C748.24 112.933 748.336 112.208 748.528 111.44C748.72 110.672 749.115 109.68 749.712 108.464L754.704 98H759.472L756.784 109.584C757.403 110.011 757.893 110.576 758.256 111.28C758.619 111.963 758.8 112.741 758.8 113.616Z" fill="#ABB2BF"/>
</svg>
